<?xml version="1.0" encoding="utf-8"?>
<!-- Generator: Adobe Illustrator 28.0.0, SVG Export Plug-In . SVG Version: 6.00 Build 0)  -->
<svg version="1.1" id="Layer_1" xmlns="http://www.w3.org/2000/svg" xmlns:xlink="http://www.w3.org/1999/xlink" x="0px" y="0px"
	 viewBox="0 0 1366 768" style="enable-background:new 0 0 1366 768;" xml:space="preserve">
<style type="text/css">
	.st0{fill:#306151;}
</style>
<g>
	<g>
		<path class="st0" d="M434.46,279.52h-5.88l6.24-23.76h71.52l-3.84,23.76h-6c0-4.32-0.22-7.72-0.66-10.2
			c-0.44-2.48-1.6-4.24-3.48-5.28c-1.88-1.04-5.02-1.56-9.42-1.56h-27.96c-3.2,0-5.84,0.28-7.92,0.84c-2.08,0.56-3.82,1.5-5.22,2.82
			c-1.4,1.32-2.64,3.06-3.72,5.22C437.04,273.52,435.82,276.24,434.46,279.52z M474.06,334.6h-40.32l1.08-5.16
			c3.44,0,6.04-0.26,7.8-0.78c1.76-0.52,3.08-1.66,3.96-3.42c0.88-1.76,1.68-4.44,2.4-8.04l11.76-56.64h17.4l-11.76,56.64
			c-0.72,3.6-1.02,6.28-0.9,8.04c0.12,1.76,0.94,2.9,2.46,3.42c1.52,0.52,3.92,0.78,7.2,0.78L474.06,334.6z"/>
		<path class="st0" d="M538.86,336.28c-6.8,0-12.54-1.22-17.22-3.66c-4.68-2.44-8.2-5.98-10.56-10.62
			c-2.36-4.64-3.54-10.2-3.54-16.68c0-7.52,1.14-14.38,3.42-20.58c2.28-6.2,5.56-11.58,9.84-16.14c4.28-4.56,9.4-8.08,15.36-10.56
			c5.96-2.48,12.58-3.72,19.86-3.72c6.88,0,12.66,1.22,17.34,3.66c4.68,2.44,8.24,5.92,10.68,10.44c2.44,4.52,3.66,9.98,3.66,16.38
			c0,7.36-1.12,14.18-3.36,20.46c-2.24,6.28-5.48,11.74-9.72,16.38c-4.24,4.64-9.36,8.24-15.36,10.8
			C553.26,335,546.46,336.28,538.86,336.28z M540.42,330.04c4.8,0,8.88-1.02,12.24-3.06s6.16-4.76,8.4-8.16
			c2.24-3.4,3.98-7.16,5.22-11.28c1.24-4.12,2.1-8.32,2.58-12.6c0.48-4.28,0.72-8.26,0.72-11.94c0-7.28-1.3-12.88-3.9-16.8
			c-2.6-3.92-6.34-5.88-11.22-5.88c-4.24,0-8.14,1.18-11.7,3.54c-3.56,2.36-6.64,5.66-9.24,9.9c-2.6,4.24-4.6,9.24-6,15
			c-1.4,5.76-2.1,12.04-2.1,18.84c0,4.64,0.54,8.64,1.62,12c1.08,3.36,2.74,5.94,4.98,7.74
			C534.26,329.14,537.06,330.04,540.42,330.04z"/>
	</g>
</g>
<g>
	<g>
		<path class="st0" d="M549.76,378.34h-36.39l1.15-5.16c3.39,0,5.98-0.26,7.76-0.78c1.78-0.52,3.12-1.58,4.01-3.18
			c0.89-1.6,1.67-4.04,2.35-7.32l10.31-47.04c0.68-2.96,0.83-5.14,0.45-6.54c-0.38-1.4-1.34-2.3-2.86-2.7
			c-1.53-0.4-3.77-0.6-6.74-0.6l1.27-5.52h35.63c5.51,0,10.79,0.42,15.84,1.26c5.05,0.84,9.54,2.36,13.49,4.56
			c3.94,2.2,7.08,5.28,9.42,9.24c2.33,3.96,3.5,9.06,3.5,15.3c0,9.04-1.57,16.66-4.71,22.86c-3.14,6.2-7.44,11.18-12.91,14.94
			c-5.47,3.76-11.77,6.48-18.89,8.16C565.28,377.5,557.73,378.34,549.76,378.34z M550.65,371.5c8.91,0,16.2-1.3,21.88-3.9
			c5.68-2.6,9.88-6.8,12.6-12.6c2.71-5.8,4.07-13.5,4.07-23.1c0-4.24-0.51-7.96-1.53-11.16c-1.02-3.2-2.57-5.86-4.64-7.98
			c-2.08-2.12-4.69-3.72-7.82-4.8c-3.14-1.08-6.83-1.62-11.07-1.62c-0.68,0-1.38,0-2.1,0c-0.72,0-1.68,0.04-2.86,0.12l-14.25,64.92
			c0.93,0.08,1.91,0.12,2.93,0.12S549.8,371.5,550.65,371.5z"/>
		<path class="st0" d="M652.7,380.02c-7.21,0-13.3-1.22-18.26-3.66c-4.96-2.44-8.7-5.98-11.2-10.62c-2.5-4.64-3.75-10.2-3.75-16.68
			c0-7.52,1.21-14.38,3.63-20.58c2.42-6.2,5.89-11.58,10.43-16.14c4.54-4.56,9.97-8.08,16.29-10.56c6.32-2.48,13.34-3.72,21.06-3.72
			c7.29,0,13.42,1.22,18.39,3.66c4.96,2.44,8.74,5.92,11.32,10.44c2.59,4.52,3.88,9.98,3.88,16.38c0,7.36-1.19,14.18-3.56,20.46
			c-2.38,6.28-5.81,11.74-10.31,16.38c-4.5,4.64-9.92,8.24-16.29,10.8C667.96,378.74,660.75,380.02,652.7,380.02z M654.35,373.78
			c5.09,0,9.42-1.02,12.98-3.06s6.53-4.76,8.91-8.16c2.37-3.4,4.22-7.16,5.54-11.28c1.31-4.12,2.23-8.32,2.74-12.6
			c0.51-4.28,0.76-8.26,0.76-11.94c0-7.28-1.38-12.88-4.14-16.8c-2.76-3.92-6.72-5.88-11.9-5.88c-4.5,0-8.63,1.18-12.41,3.54
			c-3.78,2.36-7.04,5.66-9.8,9.9c-2.76,4.24-4.88,9.24-6.36,15c-1.49,5.76-2.23,12.04-2.23,18.84c0,4.64,0.57,8.64,1.72,12
			c1.14,3.36,2.9,5.94,5.28,7.74C647.82,372.88,650.79,373.78,654.35,373.78z"/>
	</g>
</g>
<g>
	<g>
		<path class="st0" d="M693.07,422.74h-66.96l1.2-5.16c3.28,0,5.76-0.28,7.44-0.84c1.68-0.56,2.92-1.64,3.72-3.24
			c0.8-1.6,1.52-3.96,2.16-7.08l9.48-45.72c0.64-3.04,0.92-5.4,0.84-7.08c-0.08-1.68-0.8-2.86-2.16-3.54
			c-1.36-0.68-3.72-1.02-7.08-1.02l0.96-5.16h39.96l-0.96,5.16c-3.36,0-5.94,0.34-7.74,1.02c-1.8,0.68-3.12,1.86-3.96,3.54
			c-0.84,1.68-1.58,4.08-2.22,7.2l-9.96,47.52c-0.56,2.96-0.34,4.88,0.66,5.76c1,0.88,3.22,1.32,6.66,1.32h7.2
			c3.28,0,6.06-0.28,8.34-0.84c2.28-0.56,4.24-1.52,5.88-2.88c1.64-1.36,3.16-3.2,4.56-5.52c1.4-2.32,2.9-5.24,4.5-8.76h6
			L693.07,422.74z"/>
		<path class="st0" d="M741.43,422.74h-38.88l1.2-5.16c3.44,0,5.98-0.3,7.62-0.9c1.64-0.6,2.84-1.76,3.6-3.48
			c0.76-1.72,1.5-4.3,2.22-7.74l9.12-44.04c0.64-3.2,0.94-5.68,0.9-7.44c-0.04-1.76-0.74-3.02-2.1-3.78
			c-1.36-0.76-3.76-1.14-7.2-1.14l1.08-5.16h39.36l-0.96,5.16c-3.52,0-6.14,0.38-7.86,1.14c-1.72,0.76-2.94,2.04-3.66,3.84
			c-0.72,1.8-1.44,4.26-2.16,7.38l-9.12,44.04c-0.64,3.36-0.98,5.92-1.02,7.68c-0.04,1.76,0.62,2.94,1.98,3.54
			c1.36,0.6,3.68,0.9,6.96,0.9L741.43,422.74z"/>
		<path class="st0" d="M759.19,424.3h-5.04l4.44-25.92h5.76c0.16,5.12,0.72,9.06,1.68,11.82s2.42,4.66,4.38,5.7
			c1.96,1.04,4.5,1.56,7.62,1.56c2.96,0,5.76-0.42,8.4-1.26c2.64-0.84,4.82-2.24,6.54-4.2c1.72-1.96,2.58-4.62,2.58-7.98
			c0-2.8-0.66-5.14-1.98-7.02c-1.32-1.88-3.06-3.54-5.22-4.98s-4.44-2.8-6.84-4.08c-2.8-1.6-5.4-3.26-7.8-4.98
			c-2.4-1.72-4.34-3.82-5.82-6.3c-1.48-2.48-2.22-5.56-2.22-9.24c0-5.44,1.3-10,3.9-13.68c2.6-3.68,6.2-6.46,10.8-8.34
			c4.6-1.88,9.9-2.82,15.9-2.82c2.88,0,5.26,0.24,7.14,0.72c1.88,0.48,3.46,0.96,4.74,1.44c1.28,0.48,2.4,0.72,3.36,0.72
			c0.64,0,1.36-0.18,2.16-0.54c0.8-0.36,1.44-1.14,1.92-2.34h4.44l-4.68,25.2h-5.4c-0.24-7.28-1.46-12.36-3.66-15.24
			c-2.2-2.88-5.54-4.32-10.02-4.32c-4.88,0-8.6,0.96-11.16,2.88c-2.56,1.92-3.84,4.76-3.84,8.52c0,2.4,0.7,4.46,2.1,6.18
			c1.4,1.72,3.24,3.26,5.52,4.62c2.28,1.36,4.7,2.72,7.26,4.08c2.96,1.52,5.74,3.24,8.34,5.16c2.6,1.92,4.72,4.24,6.36,6.96
			c1.64,2.72,2.46,6.08,2.46,10.08c0,5.84-1.5,10.8-4.5,14.88s-7.12,7.2-12.36,9.36c-5.24,2.16-11.22,3.24-17.94,3.24
			c-3.76,0-6.6-0.3-8.52-0.9c-1.92-0.6-3.34-1.2-4.26-1.8c-0.92-0.6-1.78-0.9-2.58-0.9c-0.96,0-1.8,0.34-2.52,1.02
			C759.91,422.28,759.43,423.18,759.19,424.3z"/>
		<path class="st0" d="M833.11,367.66h-5.88l6.24-23.76h71.52l-3.84,23.76h-6c0-4.32-0.22-7.72-0.66-10.2
			c-0.44-2.48-1.6-4.24-3.48-5.28c-1.88-1.04-5.02-1.56-9.42-1.56h-27.96c-3.2,0-5.84,0.28-7.92,0.84c-2.08,0.56-3.82,1.5-5.22,2.82
			c-1.4,1.32-2.64,3.06-3.72,5.22C835.69,361.66,834.47,364.38,833.11,367.66z M872.71,422.74h-40.32l1.08-5.16
			c3.44,0,6.04-0.26,7.8-0.78c1.76-0.52,3.08-1.66,3.96-3.42c0.88-1.76,1.68-4.44,2.4-8.04l11.76-56.64h17.4l-11.76,56.64
			c-0.72,3.6-1.02,6.28-0.9,8.04c0.12,1.76,0.94,2.9,2.46,3.42c1.52,0.52,3.92,0.78,7.2,0.78L872.71,422.74z"/>
	</g>
</g>
<g>
	<g>
		<path d="M629.55,433.75h-2.73l0.1-0.47c0.29,0,0.51-0.02,0.67-0.07s0.27-0.15,0.35-0.32c0.08-0.17,0.16-0.44,0.23-0.81l0.85-4.06
			c0.06-0.28,0.08-0.49,0.06-0.64c-0.02-0.15-0.09-0.25-0.21-0.3c-0.12-0.06-0.33-0.08-0.6-0.08l0.1-0.47h3.03l0.96,5.09h0.09
			l3.08-5.09h2.83l-0.11,0.47c-0.24,0-0.44,0.03-0.58,0.08c-0.15,0.05-0.26,0.16-0.34,0.3c-0.08,0.15-0.15,0.36-0.22,0.63l-0.9,4.38
			c-0.08,0.37-0.07,0.61,0.04,0.72s0.34,0.17,0.71,0.17l-0.09,0.47h-3.49l0.1-0.47c0.27,0,0.48-0.02,0.62-0.07
			c0.14-0.05,0.25-0.14,0.32-0.26s0.14-0.31,0.19-0.56l0.91-4.38h-0.07l-3.54,5.74h-0.85l-1.17-5.74h-0.07l-0.85,4.07
			c-0.07,0.37-0.11,0.65-0.1,0.81c0.01,0.17,0.08,0.28,0.2,0.32c0.13,0.04,0.33,0.07,0.6,0.07L629.55,433.75z"/>
		<path d="M641.2,433.92c-0.28,0-0.54-0.06-0.79-0.19c-0.25-0.12-0.44-0.33-0.59-0.63c-0.15-0.29-0.23-0.69-0.23-1.19
			c0-0.51,0.08-0.98,0.24-1.4c0.16-0.42,0.38-0.79,0.65-1.09s0.59-0.54,0.94-0.71c0.35-0.16,0.71-0.25,1.09-0.25
			c0.35,0,0.61,0.06,0.76,0.19c0.16,0.13,0.29,0.27,0.41,0.41h0.07l0.44-0.52h0.9l-0.78,3.74c-0.04,0.18-0.05,0.32-0.05,0.4
			c0,0.07,0.02,0.14,0.05,0.2c0.03,0.06,0.11,0.09,0.23,0.09c0.1,0,0.19-0.02,0.27-0.07c0.08-0.05,0.15-0.11,0.21-0.18
			c0.07-0.07,0.13-0.15,0.19-0.22l0.35,0.28c-0.09,0.14-0.2,0.29-0.35,0.47c-0.14,0.17-0.34,0.32-0.58,0.45
			c-0.25,0.12-0.56,0.19-0.95,0.19c-0.28,0-0.49-0.05-0.63-0.14c-0.14-0.1-0.21-0.28-0.21-0.54c0-0.04,0-0.07,0-0.11
			c0-0.04,0-0.08,0.01-0.12h-0.09c-0.22,0.29-0.45,0.52-0.68,0.69C641.85,433.84,641.55,433.92,641.2,433.92z M641.83,433.01
			c0.19,0,0.35-0.05,0.48-0.15c0.13-0.1,0.24-0.25,0.34-0.45s0.18-0.44,0.26-0.73c0.04-0.16,0.09-0.34,0.13-0.53
			c0.04-0.19,0.08-0.39,0.1-0.59s0.04-0.39,0.04-0.58c0-0.3-0.05-0.55-0.14-0.74c-0.09-0.19-0.25-0.29-0.49-0.29
			c-0.22,0-0.41,0.08-0.58,0.25c-0.17,0.16-0.31,0.39-0.43,0.67c-0.12,0.28-0.21,0.59-0.26,0.93c-0.06,0.34-0.09,0.69-0.09,1.04
			c0,0.46,0.06,0.77,0.17,0.93C641.47,432.93,641.62,433.01,641.83,433.01z"/>
		<path d="M649.03,433.75h-1.56l1.26-6.52c0.01-0.12,0.02-0.23,0.02-0.32c0-0.07-0.02-0.15-0.05-0.24
			c-0.04-0.08-0.13-0.13-0.28-0.13c-0.1,0-0.21,0.01-0.35,0.02v-0.45l1.95-0.12h0.47l-1.01,5.15l-0.03,0.35L649.03,433.75z
			 M649.98,431.27l-0.7,0.49l0.07-0.78h0.24l1.64-1.28c0.07-0.05,0.12-0.11,0.15-0.18c0.04-0.07,0.05-0.13,0.05-0.19
			c0-0.09-0.03-0.17-0.09-0.24c-0.06-0.07-0.18-0.11-0.37-0.12l0.03-0.37h2.61l-0.03,0.37c-0.32,0.01-0.59,0.08-0.83,0.23
			c-0.24,0.14-0.45,0.29-0.65,0.45l-1.35,1.08L649.98,431.27z M651.59,433.87c-0.31,0-0.55-0.06-0.72-0.18s-0.3-0.26-0.38-0.43
			c-0.08-0.16-0.15-0.31-0.2-0.45l-0.55-1.57l1.11-0.8l0.86,1.96c0.08,0.17,0.17,0.31,0.25,0.43c0.09,0.12,0.21,0.18,0.37,0.18
			c0.19,0,0.33-0.05,0.43-0.14c0.1-0.09,0.21-0.21,0.33-0.37l0.34,0.22c-0.06,0.1-0.13,0.21-0.21,0.34
			c-0.08,0.13-0.19,0.25-0.32,0.38c-0.13,0.12-0.3,0.23-0.52,0.31C652.18,433.82,651.91,433.87,651.59,433.87z"/>
		<path d="M657.23,433.92c-0.48,0-0.86-0.09-1.16-0.27s-0.51-0.42-0.65-0.73c-0.14-0.31-0.2-0.66-0.2-1.04
			c0-0.43,0.08-0.85,0.23-1.26s0.37-0.77,0.65-1.1c0.29-0.33,0.63-0.58,1.03-0.78c0.4-0.19,0.86-0.29,1.36-0.29
			c0.22,0,0.44,0.03,0.67,0.08s0.41,0.16,0.57,0.32c0.15,0.16,0.23,0.39,0.23,0.71c0,0.37-0.11,0.68-0.33,0.93s-0.5,0.47-0.84,0.63
			s-0.7,0.28-1.07,0.36c-0.37,0.08-0.71,0.13-1.02,0.15v-0.44c0.31-0.01,0.6-0.09,0.86-0.24c0.26-0.14,0.46-0.34,0.62-0.58
			c0.16-0.25,0.24-0.53,0.24-0.85c0-0.16-0.03-0.29-0.08-0.38c-0.05-0.09-0.14-0.14-0.26-0.14c-0.17,0-0.33,0.08-0.48,0.24
			c-0.15,0.16-0.29,0.38-0.41,0.64s-0.21,0.57-0.28,0.89c-0.07,0.33-0.1,0.65-0.1,0.98c0,0.48,0.1,0.8,0.31,0.97
			c0.21,0.17,0.46,0.26,0.77,0.26c0.3,0,0.57-0.06,0.8-0.19s0.46-0.32,0.67-0.59l0.32,0.25c-0.32,0.54-0.69,0.91-1.11,1.12
			C658.13,433.81,657.69,433.92,657.23,433.92z"/>
		<path d="M746.08,433.89c-0.32,0-0.54-0.07-0.69-0.2c-0.14-0.13-0.21-0.29-0.21-0.48c0-0.1,0.01-0.21,0.03-0.34
			c0.02-0.13,0.07-0.35,0.14-0.68l0.52-2.44c0.03-0.15,0.04-0.27,0.04-0.35c0-0.07-0.02-0.14-0.07-0.21
			c-0.05-0.07-0.14-0.1-0.29-0.1c-0.09,0-0.21,0.01-0.35,0.02v-0.47l1.89-0.12h0.57l-0.81,3.85c-0.04,0.23-0.07,0.38-0.07,0.46
			c0,0.14,0.07,0.21,0.21,0.21c0.19,0,0.35-0.06,0.47-0.19c0.12-0.12,0.23-0.24,0.31-0.33l0.34,0.25c-0.12,0.18-0.26,0.35-0.41,0.52
			s-0.35,0.31-0.6,0.42C746.85,433.82,746.51,433.88,746.08,433.89z M747.06,427.79c-0.27,0-0.49-0.08-0.64-0.24
			c-0.16-0.16-0.24-0.37-0.24-0.62c0-0.26,0.08-0.46,0.23-0.62s0.37-0.24,0.65-0.24c0.29,0,0.51,0.08,0.67,0.23
			c0.15,0.15,0.23,0.36,0.23,0.62c0,0.26-0.08,0.47-0.23,0.63S747.35,427.79,747.06,427.79z"/>
		<path d="M751.24,433.91c-0.29,0-0.52-0.06-0.69-0.19c-0.18-0.12-0.26-0.35-0.26-0.67c0-0.1,0.01-0.2,0.02-0.31
			s0.04-0.23,0.07-0.36l0.69-3.2h-0.66l0.08-0.47c0.29-0.12,0.52-0.23,0.71-0.34c0.19-0.11,0.37-0.25,0.54-0.43s0.36-0.41,0.58-0.7
			H753l-1.07,5.03c-0.06,0.27-0.09,0.46-0.09,0.55c0,0.07,0.01,0.13,0.04,0.17s0.09,0.06,0.19,0.06c0.12,0,0.23-0.04,0.35-0.12
			c0.11-0.08,0.25-0.21,0.41-0.4l0.34,0.25c-0.1,0.15-0.24,0.31-0.41,0.48s-0.38,0.33-0.63,0.46
			C751.89,433.84,751.59,433.91,751.24,433.91z M753.66,429.18h-1.2l0.09-0.57h1.23L753.66,429.18z"/>
		<path d="M825.66,433.75h-3.58l0.11-0.47c0.3,0,0.53-0.03,0.68-0.08s0.26-0.16,0.34-0.31s0.15-0.4,0.21-0.72l0.84-4.04
			c0.06-0.29,0.09-0.51,0.09-0.68c0-0.16-0.06-0.28-0.19-0.35c-0.12-0.07-0.35-0.1-0.67-0.1l0.1-0.47h3.62l-0.09,0.47
			c-0.32,0-0.56,0.03-0.72,0.1c-0.16,0.07-0.27,0.19-0.34,0.35c-0.07,0.16-0.14,0.39-0.2,0.68l-0.84,4.04
			c-0.07,0.32-0.1,0.56-0.09,0.72c0,0.16,0.07,0.26,0.2,0.31c0.13,0.05,0.34,0.08,0.63,0.08L825.66,433.75z M828.66,430.4h-3.42
			l0.13-0.61h3.43L828.66,430.4z M830.43,433.75h-3.63l0.1-0.47c0.32,0,0.55-0.03,0.7-0.08c0.15-0.05,0.27-0.16,0.34-0.32
			c0.07-0.16,0.14-0.4,0.2-0.71l0.85-4.04c0.06-0.29,0.08-0.52,0.08-0.68c-0.01-0.16-0.07-0.28-0.2-0.35
			c-0.12-0.07-0.34-0.1-0.65-0.1l0.09-0.47h3.62l-0.09,0.47c-0.32,0-0.56,0.03-0.73,0.1c-0.16,0.07-0.27,0.19-0.34,0.35
			c-0.07,0.16-0.13,0.39-0.19,0.68l-0.85,4.04c-0.07,0.32-0.09,0.55-0.09,0.71c0.01,0.16,0.08,0.27,0.21,0.32s0.36,0.08,0.67,0.08
			L830.43,433.75z"/>
		<path d="M834.72,433.92c-0.28,0-0.54-0.06-0.79-0.19c-0.25-0.12-0.44-0.33-0.59-0.63c-0.15-0.29-0.23-0.69-0.23-1.19
			c0-0.51,0.08-0.98,0.24-1.4c0.16-0.42,0.38-0.79,0.65-1.09s0.59-0.54,0.94-0.71c0.35-0.16,0.71-0.25,1.09-0.25
			c0.35,0,0.61,0.06,0.76,0.19c0.16,0.13,0.29,0.27,0.41,0.41h0.07l0.44-0.52h0.9l-0.78,3.74c-0.04,0.18-0.05,0.32-0.05,0.4
			c0,0.07,0.02,0.14,0.05,0.2c0.03,0.06,0.11,0.09,0.23,0.09c0.1,0,0.19-0.02,0.27-0.07c0.08-0.05,0.15-0.11,0.21-0.18
			c0.07-0.07,0.13-0.15,0.19-0.22l0.35,0.28c-0.09,0.14-0.2,0.29-0.35,0.47c-0.14,0.17-0.34,0.32-0.58,0.45
			c-0.25,0.12-0.56,0.19-0.95,0.19c-0.28,0-0.49-0.05-0.63-0.14c-0.14-0.1-0.21-0.28-0.21-0.54c0-0.04,0-0.07,0-0.11
			c0-0.04,0-0.08,0.01-0.12h-0.09c-0.22,0.29-0.45,0.52-0.68,0.69C835.37,433.84,835.07,433.92,834.72,433.92z M835.35,433.01
			c0.19,0,0.35-0.05,0.48-0.15c0.13-0.1,0.24-0.25,0.34-0.45s0.18-0.44,0.26-0.73c0.04-0.16,0.09-0.34,0.13-0.53
			c0.04-0.19,0.08-0.39,0.1-0.59s0.04-0.39,0.04-0.58c0-0.3-0.05-0.55-0.14-0.74c-0.09-0.19-0.25-0.29-0.49-0.29
			c-0.22,0-0.41,0.08-0.58,0.25c-0.17,0.16-0.31,0.39-0.43,0.67c-0.12,0.28-0.21,0.59-0.26,0.93c-0.06,0.34-0.09,0.69-0.09,1.04
			c0,0.46,0.06,0.77,0.17,0.93C834.99,432.93,835.14,433.01,835.35,433.01z"/>
		<path d="M843.51,436.17h-2.86l1.4-6.52c0.01-0.04,0.01-0.07,0.02-0.11s0.01-0.07,0.01-0.1c0-0.11-0.03-0.19-0.09-0.24
			s-0.17-0.08-0.32-0.08c-0.07,0-0.18,0.01-0.32,0.02v-0.44l1.85-0.17h0.46l-0.18,0.84h0.14l-1.07,5.32
			c-0.01,0.05-0.02,0.12-0.03,0.21c-0.01,0.09-0.02,0.16-0.02,0.2c0,0.15,0.08,0.29,0.23,0.41s0.45,0.18,0.89,0.18L843.51,436.17z
			 M843.87,433.88c-0.3,0-0.55-0.04-0.74-0.13c-0.19-0.08-0.34-0.15-0.44-0.2l0.1-0.71c0.12,0.12,0.26,0.22,0.41,0.31
			s0.32,0.14,0.5,0.14c0.29,0,0.54-0.12,0.75-0.36c0.22-0.24,0.38-0.56,0.51-0.98s0.18-0.88,0.18-1.39c0-0.38-0.03-0.67-0.09-0.85
			s-0.14-0.31-0.23-0.37c-0.09-0.06-0.19-0.09-0.3-0.09c-0.19,0-0.36,0.06-0.51,0.19c-0.15,0.12-0.28,0.28-0.39,0.47
			c-0.11,0.19-0.2,0.38-0.26,0.59l0.02-0.95c0.21-0.21,0.4-0.4,0.57-0.56c0.17-0.16,0.35-0.29,0.53-0.37
			c0.19-0.09,0.41-0.13,0.67-0.13c0.3,0,0.57,0.07,0.82,0.21c0.25,0.14,0.44,0.36,0.58,0.65c0.14,0.3,0.21,0.69,0.21,1.17
			c0,0.67-0.14,1.26-0.41,1.77s-0.63,0.9-1.07,1.18C844.86,433.73,844.39,433.88,843.87,433.88z"/>
		<path d="M851.4,436.17h-2.86l1.4-6.52c0.01-0.04,0.01-0.07,0.02-0.11s0.01-0.07,0.01-0.1c0-0.11-0.03-0.19-0.09-0.24
			s-0.17-0.08-0.32-0.08c-0.07,0-0.18,0.01-0.32,0.02v-0.44l1.85-0.17h0.46l-0.18,0.84h0.14l-1.07,5.32
			c-0.01,0.05-0.02,0.12-0.03,0.21c-0.01,0.09-0.02,0.16-0.02,0.2c0,0.15,0.08,0.29,0.23,0.41s0.45,0.18,0.89,0.18L851.4,436.17z
			 M851.76,433.88c-0.3,0-0.55-0.04-0.74-0.13c-0.19-0.08-0.34-0.15-0.44-0.2l0.1-0.71c0.12,0.12,0.26,0.22,0.41,0.31
			s0.32,0.14,0.5,0.14c0.29,0,0.54-0.12,0.75-0.36c0.22-0.24,0.38-0.56,0.51-0.98s0.18-0.88,0.18-1.39c0-0.38-0.03-0.67-0.09-0.85
			s-0.14-0.31-0.23-0.37c-0.09-0.06-0.19-0.09-0.3-0.09c-0.19,0-0.36,0.06-0.51,0.19c-0.15,0.12-0.28,0.28-0.39,0.47
			c-0.11,0.19-0.2,0.38-0.26,0.59l0.02-0.95c0.21-0.21,0.4-0.4,0.57-0.56c0.17-0.16,0.35-0.29,0.53-0.37
			c0.19-0.09,0.41-0.13,0.67-0.13c0.3,0,0.57,0.07,0.82,0.21c0.25,0.14,0.44,0.36,0.58,0.65c0.14,0.3,0.21,0.69,0.21,1.17
			c0,0.67-0.14,1.26-0.41,1.77s-0.63,0.9-1.07,1.18C852.75,433.73,852.27,433.88,851.76,433.88z"/>
		<path d="M858.78,433.92c-0.48,0-0.86-0.09-1.16-0.27s-0.51-0.42-0.65-0.73c-0.14-0.31-0.2-0.66-0.2-1.04
			c0-0.43,0.08-0.85,0.23-1.26s0.37-0.77,0.65-1.1c0.29-0.33,0.63-0.58,1.03-0.78c0.4-0.19,0.86-0.29,1.36-0.29
			c0.22,0,0.44,0.03,0.67,0.08s0.41,0.16,0.57,0.32c0.15,0.16,0.23,0.39,0.23,0.71c0,0.37-0.11,0.68-0.33,0.93s-0.5,0.47-0.84,0.63
			s-0.7,0.28-1.07,0.36c-0.37,0.08-0.71,0.13-1.02,0.15v-0.44c0.31-0.01,0.6-0.09,0.86-0.24c0.26-0.14,0.46-0.34,0.62-0.58
			c0.16-0.25,0.24-0.53,0.24-0.85c0-0.16-0.03-0.29-0.08-0.38c-0.05-0.09-0.14-0.14-0.26-0.14c-0.17,0-0.33,0.08-0.48,0.24
			c-0.15,0.16-0.29,0.38-0.41,0.64s-0.21,0.57-0.28,0.89c-0.07,0.33-0.1,0.65-0.1,0.98c0,0.48,0.1,0.8,0.31,0.97
			c0.21,0.17,0.46,0.26,0.77,0.26c0.3,0,0.57-0.06,0.8-0.19s0.46-0.32,0.67-0.59l0.32,0.25c-0.32,0.54-0.69,0.91-1.11,1.12
			C859.68,433.81,859.24,433.92,858.78,433.92z"/>
		<path d="M865.08,433.75h-1.56l0.87-4.01c0.02-0.16,0.03-0.28,0.03-0.34c0-0.1-0.03-0.18-0.08-0.24c-0.05-0.05-0.15-0.08-0.29-0.08
			c-0.06,0-0.17,0.01-0.33,0.02v-0.46l1.8-0.12h0.52l-0.54,2.09h0.32L865.08,433.75z M867.7,433.89c-0.37,0-0.63-0.07-0.76-0.2
			c-0.14-0.13-0.2-0.31-0.2-0.53c0-0.09,0.01-0.17,0.02-0.24c0.01-0.07,0.03-0.12,0.03-0.16l0.66-2.32
			c0.05-0.23,0.08-0.42,0.08-0.55c0-0.12-0.02-0.21-0.05-0.29c-0.03-0.08-0.1-0.12-0.19-0.12c-0.12,0-0.26,0.07-0.41,0.22
			s-0.3,0.34-0.46,0.57c-0.15,0.23-0.3,0.49-0.45,0.75c-0.14,0.27-0.27,0.53-0.38,0.78s-0.2,0.47-0.26,0.64l0.29-1.76
			c0.09-0.15,0.2-0.34,0.34-0.59c0.14-0.25,0.31-0.5,0.51-0.75c0.2-0.25,0.45-0.47,0.73-0.64s0.63-0.26,1.02-0.26
			c0.37,0,0.62,0.08,0.74,0.25c0.12,0.17,0.18,0.37,0.18,0.62c0,0.14-0.01,0.27-0.03,0.4c-0.02,0.12-0.05,0.24-0.08,0.35l-0.66,2.49
			c-0.02,0.11-0.03,0.2-0.03,0.25c0,0.15,0.08,0.22,0.23,0.22c0.17,0,0.32-0.06,0.45-0.18c0.13-0.12,0.23-0.23,0.31-0.33l0.34,0.25
			c-0.03,0.04-0.08,0.12-0.17,0.24c-0.08,0.12-0.2,0.24-0.35,0.38c-0.15,0.14-0.35,0.25-0.58,0.35
			C868.33,433.84,868.04,433.89,867.7,433.89z"/>
	</g>
</g>
</svg>
