<?xml version="1.0" encoding="UTF-8"?>
<svg id="Layer_1" data-name="Layer 1" xmlns="http://www.w3.org/2000/svg" viewBox="0 0 193.27 339.51">
  <defs>
    <style>
      .cls-1 {
        fill: #fff;
        stroke: #000;
        stroke-linecap: round;
        stroke-miterlimit: 10;
        stroke-width: 4px;
      }

      .cls-2 {
        stroke-width: 0px;
      }
    </style>
  </defs>
  <path class="cls-2" d="m95.38,6.77c3.07,3.93,8.21,10.95,14.72,21.06,8.65,13.43,21.93,35.77,36.05,65.88,43.12,91.96,43.12,127.54,43.12,148.8,0,28.28-10.3,52.25-29.79,69.32-17.05,14.93-40.46,23.56-64.23,23.68h-.41c-24.37,0-49.27-11.1-66.6-29.69-12.26-13.15-26.37-35.98-23.98-70.03.64-9.16,2.21-23.9,8.32-46.06,7.48-27.15,19.86-58.42,36.79-92.96C77.79,38.77,90.52,15.3,95.38,6.77M94.79,0s-.01,0-.02,0c-.5.5-11.5,18.5-49,95C6.37,175.38,1.54,217.54.27,235.51c-4.47,63.55,46.96,104,94.57,104,.14,0,.29,0,.43,0,47.58-.25,98-33.22,98-97,0-26-2-62-43.5-150.5C121.6,31.93,95.67,0,94.79,0h0Z"/>
  <path class="cls-1" d="m21.77,275.01c14.63,24.48,19.3,30.02,46,40"/>
</svg>